<?xml version="1.0" encoding="UTF-8" standalone="no"?>
<!-- Generator: Adobe Illustrator 19.0.0, SVG Export Plug-In . SVG Version: 6.00 Build 0)  -->

<svg
   version="1.1"
   id="Layer_1"
   x="0px"
   y="0px"
   viewBox="0 0 461.367 461.367"
   style="enable-background:new 0 0 461.367 461.367;"
   xml:space="preserve"
   sodipodi:docname="groups.svg"
   inkscape:version="1.1.2 (0a00cf5339, 2022-02-04)"
   xmlns:inkscape="http://www.inkscape.org/namespaces/inkscape"
   xmlns:sodipodi="http://sodipodi.sourceforge.net/DTD/sodipodi-0.dtd"
   xmlns="http://www.w3.org/2000/svg"
   xmlns:svg="http://www.w3.org/2000/svg"><defs
   id="defs68" /><sodipodi:namedview
   id="namedview66"
   pagecolor="#ffffff"
   bordercolor="#666666"
   borderopacity="1.0"
   inkscape:pageshadow="2"
   inkscape:pageopacity="0.0"
   inkscape:pagecheckerboard="0"
   showgrid="false"
   inkscape:zoom="1.5584123"
   inkscape:cx="230.6835"
   inkscape:cy="231.00434"
   inkscape:window-width="1920"
   inkscape:window-height="1115"
   inkscape:window-x="0"
   inkscape:window-y="0"
   inkscape:window-maximized="1"
   inkscape:current-layer="Layer_1" />
<g
   id="g33"
   transform="matrix(0.72393561,0,0,0.81121957,67.180133,48.20186)">
	<g
   id="g31">
		<g
   id="g9">
			<g
   id="XMLID_29_">
				<g
   id="g6">
					<path
   style="fill:#1ea6c6"
   d="m 373.88,367.988 c 0,0.037 0,0.075 0,0.122 -37.818,34.295 -88.019,55.185 -143.083,55.185 -55.073,0 -105.275,-20.89 -143.092,-55.185 0,-0.047 0,-0.084 0,-0.122 0,-57.04 33.377,-106.277 81.659,-129.256 18.145,18.098 39.391,27.85 61.434,27.85 22.052,0 43.288,-9.752 61.443,-27.85 48.28,22.979 81.639,72.215 81.639,129.256 z"
   id="path2" />
					<path
   style="fill:#fcd09f"
   d="m 230.797,58.571 c 43.71,0 79.148,35.429 79.148,79.139 0,43.719 -35.438,103.504 -79.148,103.504 -43.71,0 -79.148,-59.785 -79.148,-103.504 0,-43.71 35.438,-79.139 79.148,-79.139 z"
   id="path4" />
				</g>
			</g>
		</g>
		<g
   id="g29">
			<g
   id="g18">
				<g
   id="XMLID_27_">
					<g
   id="g15">
						<path
   style="fill:#ef806f"
   d="m 164.094,213.389 c 2.426,3.457 4.937,6.698 7.532,9.742 l -7.897,3.756 c -26.286,12.506 -48.525,32.075 -64.328,56.59 -12.853,19.944 -20.909,42.427 -23.71,65.865 C 47.129,341.557 21.311,327.122 0,307.796 v -0.103 c 0,-49.705 29.087,-92.609 71.157,-112.638 15.813,15.775 34.323,24.272 53.527,24.272 12.581,0 24.871,-3.644 36.291,-10.595 1.002,1.575 2.051,3.13 3.119,4.657 z"
   id="path11" />
						<path
   style="fill:#efc59c"
   d="m 138.539,137.707 c 0,16.431 4.272,34.511 11.878,51.504 -7.953,5.04 -16.637,8.009 -25.733,8.009 -38.089,0 -68.965,-52.094 -68.965,-90.193 0,-38.089 30.876,-68.956 68.965,-68.956 21.124,0 40.038,9.499 52.684,24.459 -23.485,16.75 -38.829,44.207 -38.829,75.177 z"
   id="path13" />
					</g>
				</g>
			</g>
			<g
   id="g27">
				<g
   id="XMLID_22_">
					<g
   id="g24">
						<path
   style="fill:#ef806f"
   d="m 297.273,213.389 c -2.426,3.457 -4.937,6.698 -7.532,9.742 l 7.897,3.756 c 26.286,12.506 48.525,32.075 64.328,56.59 12.853,19.944 20.909,42.427 23.71,65.865 28.562,-7.785 54.38,-22.22 75.691,-41.546 v -0.103 c 0,-49.705 -29.087,-92.609 -71.157,-112.638 -15.813,15.775 -34.323,24.272 -53.527,24.272 -12.581,0 -24.871,-3.644 -36.291,-10.595 -1.002,1.575 -2.051,3.13 -3.119,4.657 z"
   id="path20" />
						<path
   style="fill:#efc59c"
   d="m 322.828,137.707 c 0,16.431 -4.272,34.511 -11.878,51.504 7.953,5.04 16.637,8.009 25.733,8.009 38.089,0 68.965,-52.094 68.965,-90.193 0,-38.089 -30.876,-68.956 -68.965,-68.956 -21.124,0 -40.038,9.499 -52.684,24.459 23.485,16.75 38.829,44.207 38.829,75.177 z"
   id="path22" />
					</g>
				</g>
			</g>
		</g>
	</g>
</g>
<g
   id="g35"
   transform="matrix(0.7565249,0,0,0.81121957,59.517763,61.607858)">
</g>
<g
   id="g37"
   transform="matrix(0.7565249,0,0,0.81121957,59.517763,61.607858)">
</g>
<g
   id="g39"
   transform="matrix(0.7565249,0,0,0.81121957,59.517763,61.607858)">
</g>
<g
   id="g41"
   transform="matrix(0.7565249,0,0,0.81121957,59.517763,61.607858)">
</g>
<g
   id="g43"
   transform="matrix(0.7565249,0,0,0.81121957,59.517763,61.607858)">
</g>
<g
   id="g45"
   transform="matrix(0.7565249,0,0,0.81121957,59.517763,61.607858)">
</g>
<g
   id="g47"
   transform="matrix(0.7565249,0,0,0.81121957,59.517763,61.607858)">
</g>
<g
   id="g49"
   transform="matrix(0.7565249,0,0,0.81121957,59.517763,61.607858)">
</g>
<g
   id="g51"
   transform="matrix(0.7565249,0,0,0.81121957,59.517763,61.607858)">
</g>
<g
   id="g53"
   transform="matrix(0.7565249,0,0,0.81121957,59.517763,61.607858)">
</g>
<g
   id="g55"
   transform="matrix(0.7565249,0,0,0.81121957,59.517763,61.607858)">
</g>
<g
   id="g57"
   transform="matrix(0.7565249,0,0,0.81121957,59.517763,61.607858)">
</g>
<g
   id="g59"
   transform="matrix(0.7565249,0,0,0.81121957,59.517763,61.607858)">
</g>
<g
   id="g61"
   transform="matrix(0.7565249,0,0,0.81121957,59.517763,61.607858)">
</g>
<g
   id="g63"
   transform="matrix(0.7565249,0,0,0.81121957,59.517763,61.607858)">
</g>
</svg>
